<svg width="405" height="301" viewBox="0 0 405 301" fill="none" xmlns="http://www.w3.org/2000/svg">
<path fill-rule="evenodd" clip-rule="evenodd" d="M151.581 273.514C151.581 273.493 151.578 273.272 151.572 272.885C151.51 268.5 151.148 242.727 151.58 242.294C151.651 242.223 152.025 241.819 152.615 241.184L152.615 241.184L152.615 241.184C155.948 237.588 166.155 226.578 167.087 226.578C167.087 226.578 237.092 226.787 237.564 226.787C238.035 226.787 253.07 241.823 253.07 242.084V257.74V273.514C253.07 273.88 226.186 300.712 225.872 300.712H178.779C178.412 300.712 151.581 273.773 151.581 273.514ZM187.741 251.562C191.628 257.287 191.299 264.291 187.005 267.207C182.711 270.122 176.079 267.845 172.192 262.12C168.305 256.395 168.634 249.391 172.928 246.475C177.221 243.56 183.853 245.837 187.741 251.562ZM218.034 267.207C213.741 264.291 213.412 257.287 217.299 251.562C221.186 245.837 227.818 243.56 232.112 246.475C236.406 249.391 236.735 256.395 232.847 262.12C228.96 267.845 222.328 270.122 218.034 267.207Z" fill="#43310B"/>
<path fill-rule="evenodd" clip-rule="evenodd" d="M135.082 255.604V236.183C140.626 221.665 146.425 216.216 160.768 210.497H194.598V27.5651H141.347C123.806 27.5651 105.638 45.733 105.638 73.2982H51.1341C38.6045 68.4951 18.933 52.499 40.4839 26.9386C49.2547 18.3767 68.425 1.00237 74.9404 0C58.652 0 22.3161 6.51539 7.28059 32.577C-7.75493 58.6385 3.93936 85.2013 11.6659 95.225C28.2946 111.375 51.5003 111.235 96.4244 110.964C102.619 110.927 109.227 110.887 116.288 110.887V155.994L102.506 169.776V218.015C103.967 222.818 112.529 237.06 135.082 255.604ZM135.082 149.729V135.947C143.227 134.694 159.139 137.952 157.636 161.006H143.853C143.227 161.006 135.082 150.356 135.082 149.729Z" fill="#43310B"/>
<path fill-rule="evenodd" clip-rule="evenodd" d="M269.777 255.604V236.183C264.233 221.665 258.434 216.216 244.092 210.497H210.262V27.5651H263.513C281.054 27.5651 299.222 45.733 299.222 73.2982H353.726C366.255 68.4951 385.927 52.499 364.376 26.9386C355.605 18.3767 336.435 1.00237 329.919 0C346.208 0 382.544 6.51539 397.579 32.577C412.615 58.6385 400.92 85.2013 393.194 95.225C376.565 111.375 353.359 111.235 308.435 110.964C302.24 110.927 295.632 110.887 288.571 110.887V155.994L302.354 169.776V218.015C300.892 222.818 292.331 237.06 269.777 255.604ZM270.503 149.729V135.947C262.359 134.694 246.447 137.951 247.95 161.006H261.733C262.359 161.006 270.503 150.356 270.503 149.729Z" fill="#43310B"/>
<path d="M305.485 126.551H343.7C355.434 135.747 360.597 141.601 368.133 152.863C339.71 175.019 326.043 172.914 305.485 144.719V126.551Z" fill="#43310B"/>
</svg>
