<svg width="7" height="7" viewBox="0 0 7 7" fill="none" xmlns="http://www.w3.org/2000/svg">
<g clip-path="url(#clip0_201_15393)">
<path d="M5.83112 5.27607V5.55374H0.833051V5.27607L1.38839 4.72072V3.0547C1.38839 2.19392 1.95206 1.43588 2.77675 1.19153C2.77675 1.16376 2.77675 1.13877 2.77675 1.11101C2.77675 0.96372 2.83525 0.822466 2.9394 0.71832C3.04355 0.614173 3.1848 0.555664 3.33209 0.555664C3.47937 0.555664 3.62063 0.614173 3.72477 0.71832C3.82892 0.822466 3.88743 0.96372 3.88743 1.11101C3.88743 1.13877 3.88743 1.16376 3.88743 1.19153C4.71211 1.43588 5.27578 2.19392 5.27578 3.0547V4.72072L5.83112 5.27607ZM3.88743 5.83141C3.88743 5.97869 3.82892 6.11995 3.72477 6.22409C3.62063 6.32824 3.47937 6.38675 3.33209 6.38675C3.1848 6.38675 3.04355 6.32824 2.9394 6.22409C2.83525 6.11995 2.77675 5.97869 2.77675 5.83141H3.88743ZM5.48403 0.886092L5.08974 1.28038C5.56456 1.74965 5.83112 2.38829 5.83112 3.0547H6.38646C6.38646 2.24112 6.06437 1.45809 5.48403 0.886092ZM0.27771 3.0547H0.833051C0.833051 2.38829 1.09962 1.74965 1.57443 1.28038L1.18014 0.886092C0.599808 1.45809 0.27771 2.24112 0.27771 3.0547Z" fill="black"/>
</g>
<defs>
<clipPath id="clip0_201_15393">
<rect width="6.6641" height="6.6641" fill="white"/>
</clipPath>
</defs>
</svg>
