<svg width="7" height="6" viewBox="0 0 7 6" fill="none" xmlns="http://www.w3.org/2000/svg">
<path d="M2.49904 5.27574H3.60972C3.60972 5.42303 3.55121 5.56428 3.44706 5.66843C3.34292 5.77257 3.20166 5.83108 3.05438 5.83108C2.90709 5.83108 2.76584 5.77257 2.66169 5.66843C2.55754 5.56428 2.49904 5.42303 2.49904 5.27574ZM5.55341 4.7204V4.99807H0.555341V4.7204L1.11068 4.16506V2.49904C1.11068 1.63826 1.67435 0.880216 2.49904 0.635866C2.49904 0.608099 2.49904 0.583108 2.49904 0.555341C2.49904 0.408056 2.55754 0.266802 2.66169 0.162656C2.76584 0.058509 2.90709 0 3.05438 0C3.20166 0 3.34292 0.058509 3.44706 0.162656C3.55121 0.266802 3.60972 0.408056 3.60972 0.555341C3.60972 0.583108 3.60972 0.608099 3.60972 0.635866C4.4344 0.880216 4.99807 1.63826 4.99807 2.49904V4.16506L5.55341 4.7204ZM4.44273 2.49904C4.44273 2.13082 4.29646 1.77769 4.03609 1.51732C3.77572 1.25696 3.42259 1.11068 3.05438 1.11068C2.68616 1.11068 2.33303 1.25696 2.07266 1.51732C1.8123 1.77769 1.66602 2.13082 1.66602 2.49904V4.44273H4.44273V2.49904ZM5.20632 0.330428L4.81203 0.72472C5.28685 1.19398 5.55341 1.83263 5.55341 2.49904H6.10875C6.10875 1.68546 5.78666 0.90243 5.20632 0.330428ZM0 2.49904H0.555341C0.555341 1.83263 0.821905 1.19398 1.29672 0.72472L0.90243 0.330428C0.322098 0.90243 0 1.68546 0 2.49904Z" fill="black"/>
</svg>
