<svg width="90" height="32" viewBox="0 0 90 32" fill="none" xmlns="http://www.w3.org/2000/svg">
<path fill-rule="evenodd" clip-rule="evenodd" d="M78.5364 29.8247C79.7503 30.2161 80.9515 30.4118 82.1401 30.4118C87.0337 30.4118 89.4804 28.4674 89.4804 24.5786C89.4804 23.2402 89.1453 22.1228 88.4752 21.2264C87.805 20.3299 86.7302 19.6355 85.2508 19.1431L81.9315 24.6731C82.4536 24.8569 82.8645 25.0274 83.1644 25.1846C83.6702 25.4371 83.9231 25.7275 83.9231 26.0558C83.9231 26.3967 83.7776 26.6618 83.4868 26.8512C83.2086 27.0406 82.6902 27.1353 81.9315 27.1353C80.882 27.1353 79.8514 26.9838 78.8399 26.6808C77.8409 26.3778 77.1265 26.0179 76.6966 25.6013L76.2034 28.6504C76.5448 29.0292 77.3225 29.4206 78.5364 29.8247ZM80.6986 24.2755C77.7524 23.3917 76.2793 21.5609 76.2793 18.7832C76.2793 17.6469 76.6081 16.6747 77.2656 15.8666C77.9231 15.0459 78.764 14.4525 79.7882 14.0863C80.8124 13.7202 81.9568 13.5371 83.2213 13.5371C85.3835 13.5371 86.9768 13.9348 88.001 14.7303L88.3424 15.0522L87.5078 17.7605C86.6733 16.9398 85.5226 16.5295 84.0558 16.5295C82.8546 16.5295 82.2539 16.883 82.2539 17.5901C82.2539 17.7921 82.2982 17.9625 82.3867 18.1014C82.4752 18.2277 82.6206 18.3413 82.823 18.4423C83.0379 18.5307 83.2466 18.6065 83.4489 18.6696C83.6512 18.7201 83.9357 18.7958 84.3024 18.8969L80.6986 24.2755Z" fill="#43310B"/>
<path d="M76.2037 26.6808C71.1659 29.9359 71.1655 23.8697 75.6112 24.0809C73.2406 25.8883 74.6364 26.6862 76.2037 26.6808Z" fill="#43310B"/>
<path d="M13.1956 26.9889C14.0934 26.9889 14.7509 26.7364 15.1682 26.2313C15.5855 25.7263 15.7941 25.1266 15.7941 24.4322V23.1064C15.7941 22.2857 15.5286 21.7049 14.9975 21.364C14.4664 21.0105 13.8658 20.8337 13.1956 20.8337H11.7162V26.9889H13.1956ZM15.5286 14.1861C15.5286 13.4286 15.3199 12.9046 14.9027 12.6142C14.4854 12.3112 13.8848 12.1597 13.1008 12.1597H11.7162V17.633H13.2525C13.9859 17.633 14.5486 17.349 14.9406 16.7808C15.3326 16.2 15.5286 15.4929 15.5286 14.6596V14.1861ZM14.4854 30.8714C13.4991 30.8714 12.222 30.8462 10.654 30.7957C9.08607 30.7452 7.96069 30.7136 7.27787 30.701H5.45703V8.50444H8.73834C9.53496 8.50444 10.4454 8.47918 11.4696 8.42868C12.4938 8.36555 13.2336 8.33398 13.6888 8.33398C15.1682 8.33398 16.4137 8.45393 17.4253 8.69383C18.4495 8.93372 19.2524 9.29356 19.8341 9.77335C20.4158 10.2531 20.8267 10.8087 21.067 11.44C21.3199 12.0713 21.4463 12.8225 21.4463 13.6937C21.4463 15.0321 21.1365 16.1811 20.5169 17.1406C19.8973 18.1002 18.9996 18.6999 17.8236 18.9398C20.8078 19.205 22.2998 20.9537 22.2998 24.186C22.2998 25.1582 22.1544 26.042 21.8636 26.8374C21.5728 27.6202 21.1239 28.321 20.5169 28.9396C19.9226 29.5457 19.1134 30.0192 18.0891 30.3601C17.0649 30.701 15.8637 30.8714 14.4854 30.8714Z" fill="#43310B"/>
<path d="M1.24854 2.88477C3.91579 8.21137 11.8917 5.25214 12.7807 9.69098C6.47065 10.8747 6.28686 7.32362 2.43385 9.98692C3.32282 7.32362 0.95182 8.21137 1.24854 2.88477Z" fill="#43310B" stroke="#43310B"/>
<path d="M23.5093 2.88477C20.842 8.21137 12.8661 5.25214 11.9771 9.69098C18.2872 10.8747 18.4709 7.32362 22.324 9.98692C21.435 7.32362 23.806 8.21137 23.5093 2.88477Z" fill="#43310B" stroke="#43310B"/>
<path d="M34.7892 28.3019C34.7133 28.4787 34.5552 28.7123 34.315 29.0027C34.0874 29.2931 33.6092 29.8753 33.2298 30.2288C32.9335 29.9329 32.6008 28.5093 32.0444 28.7492C31.488 29.0017 30.2425 28.1574 29.6735 28.1574C27.8906 28.1574 26.2964 27.5497 26.4135 28.8755C25.6548 27.8149 25.3435 26.7994 25.3435 24.3247V17.5825L24.6797 16.9006V14.7227H31.5648V25.5179C31.5521 26.0861 31.6469 26.509 31.8493 26.7868C32.0516 27.0519 32.4183 27.1845 32.9494 27.1845C33.0252 27.1845 33.0948 27.1845 33.158 27.1845C33.2212 27.1719 33.2844 27.1593 33.3477 27.1466C33.4109 27.1214 33.4615 27.1025 33.4994 27.0898C33.55 27.0772 33.6069 27.0583 33.6701 27.033C33.7333 26.9951 33.7839 26.9636 33.8218 26.9383C33.8598 26.9131 33.9104 26.8815 33.9736 26.8436C34.0368 26.7931 34.0811 26.7552 34.1063 26.73C34.1443 26.7047 34.1949 26.6669 34.2581 26.6163C34.334 26.5532 34.3909 26.509 34.4288 26.4838V17.5825L33.4046 16.9006V14.7227H40.631V28.5597L37.3789 28.7492L34.7892 28.3019Z" fill="#43310B"/>
<path d="M33.2295 30.2285C28.488 28.1572 25.5242 28.1573 23.7461 31.1162V27.2695H33.2295V30.2285Z" fill="#43310B"/>
<path d="M33.2295 30.2285C28.488 28.1572 25.5242 28.1573 23.7461 31.1162V27.2695H33.2295V30.2285Z" stroke="#43310B"/>
<path d="M33.2314 30.2285C37.973 28.1572 40.9367 28.1573 42.7148 31.1162V27.2695H33.2314V30.2285Z" fill="#43310B"/>
<path d="M33.2314 30.2285C37.973 28.1572 40.9367 28.1573 42.7148 31.1162V27.2695H33.2314V30.2285Z" stroke="#43310B"/>
<path fill-rule="evenodd" clip-rule="evenodd" d="M53.6202 30.5592H47.5312L47.5318 17.7943V14.461V12.8133C47.5318 11.5381 47.7088 10.4333 48.0629 9.49898C48.4169 8.56466 48.9101 7.83866 49.5423 7.32099C50.1872 6.80333 50.8953 6.43086 51.6666 6.20359C52.4506 5.9637 53.3231 5.84375 54.2841 5.84375C55.1439 5.84375 55.9532 5.95738 56.7119 6.18465C57.4706 6.41192 57.9447 6.62025 58.1344 6.80964L57.4137 9.68837C56.8067 9.38535 56.1808 9.23384 55.5359 9.23384C55.3715 9.23384 55.2198 9.24646 55.0807 9.27171C54.107 9.42323 53.6202 10.2502 53.6202 11.7527V14.461V17.7943V30.5592Z" fill="#43310B"/>
<path d="M57.2347 15.9043H45.0839L43.8984 19.7513H55.4565L57.2347 15.9043Z" fill="#43310B" stroke="#43310B"/>
<path d="M75.9042 7.61943L77.9787 8.80312L77.386 4.95613L79.7569 4.06836L80.646 6.13982L77.9787 8.80312L80.646 8.21127L80.0533 10.5787L74.7188 14.7216L75.9042 7.61943Z" fill="#43310B"/>
<path fill-rule="evenodd" clip-rule="evenodd" d="M68.4366 30.5592H62.3477L62.3482 17.7943V14.461V12.8133C62.3482 11.5381 62.5252 10.4333 62.8793 9.49898C63.2333 8.56466 63.7265 7.83866 64.3587 7.32099C65.0036 6.80333 65.7117 6.43086 66.483 6.20359C67.267 5.9637 68.1395 5.84375 69.1005 5.84375C69.9603 5.84375 70.7696 5.95738 71.5283 6.18465C72.287 6.41192 72.7611 6.62025 72.9508 6.80964L72.2301 9.68837C71.6231 9.38535 70.9972 9.23384 70.3523 9.23384C70.1879 9.23384 70.0362 9.24646 69.8971 9.27171C68.9235 9.42323 68.4366 10.2502 68.4366 11.7527V14.461V17.7943V30.5592Z" fill="#43310B"/>
<path d="M72.0511 15.9043H59.9003L58.7148 19.7513H70.2729L72.0511 15.9043Z" fill="#43310B" stroke="#43310B"/>
</svg>
