<svg width="21" height="21" viewBox="0 0 21 21" fill="none" xmlns="http://www.w3.org/2000/svg">
<path d="M20.832 5.73904C20.8328 5.60743 20.8076 5.47697 20.7578 5.35513C20.7081 5.2333 20.6347 5.12248 20.542 5.02904L16.302 0.78904C16.2086 0.696359 16.0978 0.623034 15.976 0.573269C15.8541 0.523504 15.7237 0.498279 15.592 0.49904C15.4604 0.498279 15.33 0.523504 15.2081 0.573269C15.0863 0.623034 14.9755 0.696359 14.882 0.78904L12.052 3.61904L1.12205 14.549C1.02937 14.6425 0.956041 14.7533 0.906277 14.8751C0.856512 14.997 0.831287 15.1274 0.832048 15.259V19.499C0.832048 19.7643 0.937405 20.0186 1.12494 20.2061C1.31248 20.3937 1.56683 20.499 1.83205 20.499H6.07205C6.21198 20.5067 6.35194 20.4848 6.48287 20.4348C6.61379 20.3848 6.73276 20.3079 6.83205 20.209L17.702 9.27904L20.542 6.49904C20.6333 6.40212 20.7077 6.29057 20.762 6.16904C20.7717 6.08933 20.7717 6.00875 20.762 5.92904C20.7667 5.88249 20.7667 5.83559 20.762 5.78904L20.832 5.73904ZM5.66205 18.499H2.83205V15.669L12.762 5.73904L15.592 8.56904L5.66205 18.499ZM17.002 7.15904L14.172 4.32904L15.592 2.91904L18.412 5.73904L17.002 7.15904Z" fill="black"/>
</svg>
