<svg width="19" height="23" viewBox="0 0 19 23" fill="none" xmlns="http://www.w3.org/2000/svg">
<path d="M4.88364 3.68701C4.28141 3.76202 3.68584 3.84003 3.09758 3.9123C2.27637 4.0132 1.62736 4.67145 1.56927 5.49679C1.21649 10.5078 1.21649 15.2421 1.56927 20.253C1.62738 21.0784 2.27652 21.7387 3.10101 21.8079C7.63962 22.1883 11.7898 22.1883 16.3285 21.8079C17.153 21.7387 17.8021 21.0784 17.8603 20.253C18.2129 15.2421 18.2129 10.5078 17.8603 5.49679C17.8021 4.67145 17.153 4.0132 16.3319 3.9123C15.7436 3.84003 15.148 3.76202 14.5458 3.68701" stroke="black" stroke-width="1.71415"/>
<path d="M12.0176 0.906738H7.41C6.00511 0.906738 4.86621 2.04563 4.86621 3.45053V3.45224C4.86621 4.85714 6.00511 5.99604 7.41 5.99604H12.0176C13.4225 5.99604 14.5614 4.85714 14.5614 3.45224V3.45053C14.5614 2.04563 13.4225 0.906738 12.0176 0.906738Z" stroke="black" stroke-width="1.71415" stroke-linejoin="round"/>
</svg>
