<svg width="25" height="38" viewBox="0 0 25 38" fill="none" xmlns="http://www.w3.org/2000/svg">
<path fill-rule="evenodd" clip-rule="evenodd" d="M7.74368 0.635133C6.34161 1.01295 5.18718 1.90318 4.44858 3.17586C4.16637 3.66204 3.90788 4.4776 3.82408 5.14589C3.77824 5.51119 3.75069 8.87102 3.75069 14.0941V22.4573L3.23393 22.9521C2.00466 24.1292 1.11155 25.7549 0.784437 27.4108C0.683716 27.9209 0.771278 28.2008 1.07048 28.3247C1.29188 28.4164 1.60474 28.3646 1.72831 28.2157C1.77249 28.1624 1.88464 27.8122 1.97748 27.4372C2.35202 25.925 2.91441 24.9541 4.08626 23.7966L4.90324 22.9896L4.92435 14.0368C4.94424 5.57792 4.95277 5.0621 5.07807 4.68638C5.5704 3.21063 6.67617 2.12448 8.05951 1.75773C8.98075 1.51351 10.1456 1.65051 11.0174 2.10553C11.6289 2.42472 12.4868 3.29543 12.7797 3.89439C13.2448 4.84558 13.2209 4.30185 13.2218 13.9474C13.2225 20.15 13.246 22.8002 13.302 22.9481C13.3457 23.0633 13.5815 23.3224 13.8262 23.5237C16.7019 25.8896 17.2411 30.3569 15.0125 33.3512C14.0358 34.6634 12.6804 35.5964 11.0018 36.1119C10.4181 36.2912 10.264 36.3074 9.10129 36.3112C7.75106 36.3156 7.44116 36.2653 6.41037 35.8742C5.80004 35.6428 4.79688 35.0165 4.2073 34.4989C3.21643 33.6291 2.33712 32.1453 1.98485 30.7486C1.78644 29.962 1.64993 29.7726 1.28103 29.7726C1.02023 29.7726 0.713867 30.0588 0.713867 30.3023C0.713867 30.6412 1.07207 31.8833 1.35413 32.5224C2.15831 34.3444 3.6653 35.8788 5.50778 36.7515C6.60654 37.2718 7.34976 37.443 8.70361 37.4871C9.60728 37.5166 10.0029 37.4983 10.5112 37.4034C15.2005 36.5281 18.1585 32.4047 17.4533 27.7265C17.1836 25.9378 16.3874 24.3889 15.0556 23.0629L14.3796 22.3898V13.6942C14.3796 5.28173 14.375 4.98055 14.2373 4.44224C13.7961 2.71773 12.4939 1.32273 10.7713 0.729405C10.0105 0.467337 8.53644 0.42143 7.74368 0.635133ZM19.1643 3.55237C18.9689 3.76043 18.9605 4.10665 19.1453 4.33496L19.2834 4.50565L21.7265 4.52654C24.328 4.54881 24.4905 4.53102 24.6375 4.20815C24.7626 3.93394 24.7363 3.75704 24.5417 3.56256L24.3643 3.38508H21.8429H19.3216L19.1643 3.55237ZM8.16775 4.1188C7.66472 4.38173 7.28968 4.82642 7.1515 5.32388C7.10291 5.49883 7.07732 8.75086 7.07688 14.8076L7.07623 24.0252L6.6197 24.2613C5.63417 24.7707 4.82291 25.6081 4.32697 26.6278C3.9483 27.4064 3.80434 28.0514 3.80253 28.9774C3.80065 29.9145 3.9295 30.4503 4.37599 31.3631C4.6561 31.9356 4.81546 32.1532 5.33396 32.671C6.0231 33.359 6.61731 33.7309 7.49849 34.0258C7.99212 34.191 8.16775 34.2113 9.10129 34.2112C10.0447 34.211 10.2077 34.1917 10.7282 34.0179C11.5749 33.7353 12.1682 33.3595 12.8631 32.6656C13.9116 31.6186 14.3796 30.4804 14.3796 28.9774C14.3796 26.9062 13.2866 25.0964 11.5054 24.2184L11.1258 24.0312V17.1582C11.1258 9.65325 11.1479 10.0512 10.7236 9.88987C10.5098 9.80861 10.1372 9.92927 10.0397 10.1113C10.0008 10.184 9.96895 10.6849 9.96895 11.2243V12.205H9.10129H8.23362V8.98076C8.23362 5.44663 8.23637 5.42242 8.66167 5.17119C8.94641 5.00303 9.3289 5.01475 9.56296 5.19881C9.92745 5.48546 9.96895 5.66431 9.96895 6.94747C9.96895 8.09146 9.97459 8.13665 10.1363 8.28854C10.3658 8.50405 10.7214 8.49516 10.9483 8.26822C11.1227 8.09385 11.1258 8.0697 11.1258 6.87163C11.1258 5.42386 11.049 5.08285 10.6112 4.58546C10.1991 4.11735 9.83649 3.94645 9.17359 3.90799C8.6684 3.87871 8.59956 3.89317 8.16775 4.1188ZM19.1517 7.93964C18.9663 8.12508 18.9632 8.52003 19.1454 8.74494L19.2835 8.91562H21.1401H22.9967L23.1349 8.74494C23.3268 8.50803 23.3135 8.14735 23.1058 7.95222C22.9431 7.79947 22.8876 7.79506 21.1174 7.79506C19.3927 7.79506 19.2887 7.80272 19.1517 7.93964ZM19.1517 12.3496C18.9663 12.535 18.9632 12.9299 19.1453 13.1549L19.2834 13.3256L21.6579 13.3481C23.1736 13.3624 24.1261 13.343 24.2916 13.2945C24.7072 13.1726 24.8407 12.7404 24.5694 12.3955L24.4195 12.205H21.8579C19.3927 12.205 19.2909 12.2105 19.1517 12.3496ZM9.96895 19.0243V24.6868L10.1316 24.8317C10.2211 24.9115 10.4687 25.047 10.6818 25.1328C11.8362 25.5979 12.7913 26.7013 13.115 27.9438C13.2537 28.4761 13.2527 29.4075 13.1129 29.9563C12.7408 31.4173 11.543 32.6148 10.0803 32.9882C7.97802 33.5248 5.71812 32.1835 5.08277 30.0219C4.68141 28.6565 5.2049 26.8863 6.30162 25.9004C6.68839 25.5527 7.41853 25.1151 7.74672 25.0342C7.8567 25.0071 8.01128 24.9029 8.09017 24.8026C8.23044 24.6242 8.23362 24.4958 8.23362 18.991V13.3617H9.10129H9.96895V19.0243ZM19.1517 16.7596C18.9966 16.9147 18.9611 17.2615 19.0779 17.4797C19.2078 17.7223 19.5564 17.7717 21.1401 17.7717C22.7239 17.7717 23.0725 17.7223 23.2023 17.4797C23.3181 17.2635 23.2833 16.9423 23.1257 16.7733C22.9815 16.6185 22.9381 16.615 21.1373 16.615C19.3927 16.615 19.2887 16.6226 19.1517 16.7596ZM19.1517 21.1696C19.0622 21.2591 19.0071 21.4105 19.0071 21.5672C19.0071 21.7239 19.0622 21.8753 19.1517 21.9648C19.2909 22.104 19.3927 22.1094 21.8579 22.1094H24.4195L24.5694 21.9189C24.7595 21.6772 24.7595 21.4572 24.5694 21.2155L24.4195 21.025H21.8579C19.3927 21.025 19.2909 21.0304 19.1517 21.1696Z" fill="#404040" fill-opacity="0.23"/>
</svg>
